<?xml version="1.0" encoding="iso-8859-1"?>
<!-- Uploaded to: SVG Repo, www.svgrepo.com, Generator: SVG Repo Mixer Tools -->
<svg fill="#000000" height="800px" width="800px" version="1.1" id="Capa_1" xmlns="http://www.w3.org/2000/svg" xmlns:xlink="http://www.w3.org/1999/xlink" 
	 viewBox="0 0 490 490" xml:space="preserve">
<path id="XMLID_1062_" d="M453.32,172.52l-46.64-31.094c-4.183-2.789-6.68-7.455-6.68-12.481V15c0-8.284-6.716-15-15-15H105
	c-8.284,0-15,6.716-15,15v113.944c0,5.026-2.497,9.692-6.679,12.481L36.68,172.52C32.506,175.301,30,179.984,30,185v200
	c0,16.744,9.191,31.381,22.794,39.13l28.789,57.578C84.125,486.79,89.318,490,95,490h300c5.682,0,10.875-3.21,13.417-8.292
	l28.789-57.578C450.809,416.381,460,401.744,460,385V185C460,179.984,457.494,175.301,453.32,172.52z M309.81,30
	c-2.562,33.514-30.651,60-64.81,60s-62.248-26.486-64.81-60H309.81z M385.729,460H104.271l-15-30h311.459L385.729,460z M430,385
	c0,8.271-6.729,15-15,15H75c-8.271,0-15-6.729-15-15V193.027l39.962-26.641C112.509,158.021,120,144.023,120,128.944V30h30.13
	c2.348,45.027,36.196,81.86,79.87,88.817V245c0,8.284,6.716,15,15,15s15-6.716,15-15V118.817
	c43.674-6.957,77.522-43.79,79.87-88.817H370v98.944c0,15.079,7.491,29.076,20.039,37.442L430,193.027V385z"/>
</svg>